<svg width="852" height="852" viewBox="0 0 852 852" fill="none" xmlns="http://www.w3.org/2000/svg">
<path fill-rule="evenodd" clip-rule="evenodd" d="M437.926 507.279L636.875 335.28V236.202L487.913 6.10352e-05L834.829 6.10352e-05C843.914 6.10352e-05 851.278 7.36435 851.278 16.4487V834.829C851.278 843.914 843.914 851.278 834.829 851.278H544.382L763.073 539.777L729.783 311.501L438.097 551.666V851.278H412.734V561.97C412.734 510.088 294.84 424.984 282.849 416.327L282.573 416.128C178.723 341.126 154.167 225.105 154.167 213.216C117.707 305.16 76.49 502.524 94.8919 574.652C118.717 668.039 236.487 747.811 312.863 785.49C361.481 809.475 393.488 833.283 406.715 851.278H16.4486C7.36432 851.278 0 843.914 0 834.829V16.4487C0 7.36438 7.36429 6.10352e-05 16.4486 6.10352e-05H312.08L247.697 98.2855C233.958 115.459 206.48 160.744 206.48 204.497C206.48 259.188 229.173 319.985 324.581 396.312C325.891 397.36 327.209 398.413 328.533 399.471L328.616 399.537L328.616 399.538C367.171 430.351 410.651 465.1 410.975 490.351C410.977 491.57 410.977 491.694 410.977 490.634C410.977 490.54 410.977 490.445 410.975 490.351C410.958 472.241 410.837 212.442 411.286 6.10352e-05L437.926 6.10352e-05V496.183V507.279Z" fill="#E5E5E5"/>
</svg>
