<svg width="852" height="852" viewBox="0 0 852 852" fill="none" xmlns="http://www.w3.org/2000/svg">
<path fill-rule="evenodd" clip-rule="evenodd" d="M437.926 507.418L636.875 335.418V236.34L487.913 0.138306H834.829C843.914 0.138306 851.278 7.5026 851.278 16.5869V834.968C851.278 844.052 843.914 851.416 834.829 851.416H544.382L763.073 539.915L729.783 311.64L438.097 551.805V851.416H412.734V562.109C412.734 510.226 294.842 425.123 282.849 416.466L282.849 416.466L282.573 416.266C178.723 341.264 154.167 225.244 154.167 213.354C117.707 305.299 76.49 502.662 94.8919 574.791C118.717 668.177 236.487 747.949 312.863 785.629C361.481 809.613 393.487 833.421 406.715 851.416H16.4486C7.36432 851.416 0 844.052 0 834.968V16.5869C0 7.50262 7.36429 0.138306 16.4486 0.138306H312.08L247.697 98.4239C233.958 115.597 206.48 160.883 206.48 204.635C206.48 259.327 229.173 320.124 324.581 396.45C325.919 397.52 327.264 398.596 328.616 399.676L328.616 399.676C367.171 430.489 410.651 465.238 410.975 490.489C410.977 491.708 410.977 491.832 410.977 490.773C410.977 490.678 410.977 490.584 410.975 490.489C410.958 472.379 410.837 212.581 411.286 0.138306H437.926V496.321V507.418Z" fill="#0D0D0D"/>
</svg>
