<?xml version="1.0" encoding="UTF-8"?>
<svg id="Layer_1" data-name="Layer 1" xmlns="http://www.w3.org/2000/svg" viewBox="0 0 341 123">
  <defs>
    <style>
      .cls-1 {
        fill-rule: evenodd;
      }

      .cls-1, .cls-2 {
        fill: #fff;
      }
    </style>
  </defs>
  <path class="cls-1" d="M63.28,73.3l28.75-24.85v-14.32L70.5,0h50.13c1.31,0,2.38,1.06,2.38,2.38v118.25c0,1.31-1.06,2.38-2.38,2.38h-41.97l31.6-45.01-4.81-32.98-42.15,34.7v43.29h-3.66v-41.8c0-7.5-17.03-19.79-18.77-21.04l-.04-.03c-15.01-10.84-18.55-27.6-18.55-29.32-5.27,13.29-11.22,41.8-8.56,52.22,3.44,13.49,20.46,25.02,31.5,30.46,7.02,3.47,11.65,6.91,13.56,9.51H2.38C1.06,123,0,121.94,0,120.63V2.38C0,1.06,1.06,0,2.38,0h42.72l-9.3,14.2c-1.99,2.48-5.96,9.02-5.96,15.35,0,7.9,3.28,16.69,17.06,27.72l.58.47c5.57,4.45,11.85,9.47,11.9,13.12,0,.18,0,.19,0,.04v-.04c0-2.62-.02-40.16.04-70.85h3.85v73.3Z"/>
  <path class="cls-2" d="M144.53,55.88h-1.83V14.08h1.83v41.8Z"/>
  <path class="cls-2" d="M157.24,55.88h-1.83v-29.78h1.49v6.99c1.43-4.7,5.1-7.79,10.82-7.79h.12c7.44,0,11.39,5.1,11.39,12.71v17.87h-1.83v-18.32c0-6.24-3.44-10.54-9.74-10.54s-10.42,4.35-10.42,10.77v18.1Z"/>
  <path class="cls-2" d="M199.56,55.88h-4.24l-11.17-29.78h1.89l10.48,28.06h1.83l9.39-28.06h1.83l-10.02,29.78Z"/>
  <path class="cls-2" d="M216.71,19.12c-1.26,0-1.95-.74-1.95-1.89s.69-1.89,1.95-1.89,1.95.8,1.95,1.89c0,1.15-.69,1.89-1.95,1.89ZM218.88,55.88h-1.83v-28.06h-5.15v-1.72h6.99v29.78Z"/>
  <path class="cls-2" d="M237.05,56.68c-7.27,0-11.17-3.78-11.17-8.93h1.83c0,3.95,2.75,7.22,9.33,7.22s9.33-3.32,9.33-7.22-3.26-5.9-7.62-6.36l-3.66-.4c-4.98-.57-7.96-3.26-7.96-7.56s3.55-8.25,9.91-8.25c5.9,0,9.91,3.38,9.91,8.25h-1.83c.06-3.72-2.92-6.53-8.07-6.53-5.61,0-8.07,3.15-8.07,6.64,0,2.92,2.18,5.33,6.3,5.78l3.66.4c5.21.57,9.28,3.09,9.28,8.13s-3.89,8.82-11.17,8.82Z"/>
  <path class="cls-2" d="M256.56,19.12c-1.26,0-1.95-.74-1.95-1.89s.69-1.89,1.95-1.89,1.95.8,1.95,1.89c0,1.15-.69,1.89-1.95,1.89ZM258.73,55.88h-1.83v-28.06h-5.15v-1.72h6.99v29.78Z"/>
  <path class="cls-2" d="M282.86,56.8c-6.58,0-11.17-3.89-13-8.93v8.02h-1.49V14.08h1.83v19.3c2-4.81,6.41-8.19,12.65-8.19,9.22,0,14.37,7.73,14.37,15.63v.34c0,7.44-4.92,15.63-14.37,15.63ZM282.74,55.08c8.25,0,12.65-6.99,12.65-14.09,0-7.56-4.64-14.09-12.65-14.09-7.56,0-12.65,5.44-12.65,12.54v3.09c0,6.64,4.87,12.54,12.65,12.54Z"/>
  <path class="cls-2" d="M306.04,55.88h-1.83V15.8h-4.7v-1.72h6.53v41.8Z"/>
  <path class="cls-2" d="M327.46,56.8c-9.96,0-14.55-7.85-14.55-15.8v-.34c0-7.79,4.81-15.46,14.2-15.46,8.7,0,13.74,6.81,13.74,13.92v1.83h-26.23c.06,7.56,4.18,14.14,12.83,14.14,6.24,0,10.19-3.38,11.11-7.56h1.83c-1.2,5.38-5.78,9.28-12.94,9.28ZM327.11,26.9c-7.62,0-11.85,5.61-12.43,12.31h24.45c-.23-6.93-4.7-12.31-12.02-12.31Z"/>
  <path class="cls-2" d="M160.05,106.77c-15.29,0-20.9-11.68-20.9-21.53v-.69c0-10.59,6.47-21.53,19.99-21.53,9.74,0,16.43,5.78,17.52,14.49h-1.83c-1.03-8.13-7.44-12.77-15.69-12.77-11.91,0-18.15,9.56-18.15,20.16,0,9.85,5.38,20.16,19.07,20.16,6.01,0,10.99-2.06,14.14-5.55v-10.36h-15.75v-1.6h21.65v1.6h-4.07v10.88c-3.26,4.07-8.7,6.76-15.98,6.76Z"/>
  <path class="cls-2" d="M193.67,106.65c-5.67,0-10.37-3.26-10.37-9.22,0-5.38,3.95-8.88,10.82-8.88h9.91v-2.86c0-5.1-2.41-8.19-8.99-8.19-3.04,0-5.9.23-8.07.57v-1.72c2.23-.34,4.87-.57,7.16-.57,8.88,0,11.74,3.66,11.74,10.36v19.7h-1.49v-6.41c-1.55,4.87-5.84,7.22-10.71,7.22ZM193.78,105.05c4.75,0,10.02-2.46,10.25-9.96v-4.92h-10.25c-5.61,0-8.65,2.92-8.65,7.33,0,4.75,3.67,7.56,8.65,7.56Z"/>
  <path class="cls-2" d="M216.84,105.85h-1.83v-29.78h1.49v7.56c1.32-5.15,5.04-7.79,12.08-7.79h.97v1.72h-1.43c-7.56,0-11.28,3.84-11.28,11.28v17.01Z"/>
  <path class="cls-2" d="M245.75,106.77c-9.22,0-14.37-7.73-14.37-15.63v-.34c0-7.44,4.92-15.63,14.37-15.63,6.3,0,10.71,3.55,12.66,8.3v-19.41h1.83v41.8h-1.49v-7.9c-1.89,5.15-6.47,8.82-13,8.82ZM245.87,105.05c7.56,0,12.65-5.44,12.65-12.54v-3.09c0-6.64-4.87-12.54-12.65-12.54-8.25,0-12.65,6.99-12.65,14.09,0,7.56,4.64,14.09,12.65,14.09Z"/>
  <path class="cls-2" d="M281.65,106.77c-9.96,0-14.54-7.84-14.54-15.8v-.34c0-7.79,4.81-15.46,14.2-15.46,8.7,0,13.74,6.81,13.74,13.92v1.83h-26.23c.06,7.56,4.18,14.14,12.83,14.14,6.24,0,10.19-3.38,11.11-7.56h1.83c-1.2,5.38-5.78,9.28-12.94,9.28ZM281.3,76.88c-7.62,0-11.85,5.61-12.43,12.31h24.45c-.23-6.93-4.7-12.31-12.03-12.31Z"/>
  <path class="cls-2" d="M303.15,105.85h-1.83v-29.78h1.49v6.99c1.43-4.7,5.1-7.79,10.82-7.79h.11c7.44,0,11.4,5.1,11.4,12.71v17.87h-1.83v-18.32c0-6.24-3.44-10.54-9.73-10.54s-10.42,4.35-10.42,10.77v18.1Z"/>
</svg>